<svg width="1440" height="432" viewBox="0 0 1440 432" fill="none" xmlns="http://www.w3.org/2000/svg">
<path d="M1440 313.202L1440 85.1582L0 85.1582L-1.12804e-05 330.705C-1.24222e-05 355.558 20.1472 375.705 45 375.705L198.176 375.705C223.029 375.705 243.176 355.558 243.176 330.705L243.176 284.775C243.176 259.922 263.323 239.775 288.176 239.775L537.795 239.775C562.647 239.775 582.795 259.922 582.795 284.775L582.795 386.5C582.795 411.353 602.942 431.5 627.795 431.5L767.037 431.5C791.89 431.5 812.037 411.353 812.037 386.5L812.037 227.21C812.037 202.357 832.184 182.21 857.037 182.21L1095.33 182.21C1120.19 182.21 1140.33 202.357 1140.33 227.21L1140.33 330.421C1140.33 355.385 1160.66 375.577 1185.62 375.42L1379.38 374.201C1412.92 373.99 1440 346.741 1440 313.202Z" fill="#B5DEFF"/>
<rect width="1439" height="98.0033" fill="#B5DEFF"/>
</svg>
