<svg width="600" height="400" viewBox="0 0 600 400" fill="none" xmlns="http://www.w3.org/2000/svg">
<path d="M600 286.378L600 78.9414L0 78.9414L-4.63235e-06 303.278C-5.14554e-06 328.131 20.1472 348.278 45 348.278L56.3232 348.278C81.1761 348.278 101.323 328.131 101.323 303.278L101.323 267.271C101.323 242.418 121.47 222.271 146.323 222.271L197.831 222.271C222.684 222.271 242.831 242.418 242.831 267.271L242.831 355C242.831 379.853 262.978 400 287.831 400L293.349 400C318.202 400 338.349 379.853 338.349 355L338.349 213.908C338.349 189.056 358.496 168.908 383.349 168.908L430.14 168.908C454.992 168.908 475.14 189.055 475.14 213.908L475.14 302.644C475.14 327.743 495.673 347.991 520.77 347.639L539.854 347.372C573.207 346.905 600 319.734 600 286.378Z" fill="#A2D2FF"/>
<rect x="3.05176e-05" width="599.583" height="90.849" fill="#A2D2FF"/>
</svg>
