<svg width="48" height="48" viewBox="0 0 48 48" fill="none" xmlns="http://www.w3.org/2000/svg">
<path d="M40.1984 0C35.8948 0 32.397 3.9278 32.397 8.76053C32.397 16.4813 39.0496 20.4284 39.324 20.5824C39.5812 20.7365 39.8898 20.8327 40.1984 20.8327C40.4899 20.8327 40.7985 20.7557 41.0729 20.5824C41.3472 20.4284 47.9999 16.5006 47.9999 8.77978C47.9999 3.94705 44.485 0 40.1984 0ZM40.2327 11.7449C38.6724 11.7449 37.335 10.3201 37.335 8.58724C37.335 6.83514 38.5181 5.4296 40.0613 5.4296H40.2327C41.793 5.4296 43.0618 6.85439 43.0618 8.58724C43.0618 10.3201 41.793 11.7449 40.2327 11.7449Z" fill="#5E17EB"/>
<path d="M28.8821 2.3877C28.6935 1.40575 27.922 0.693359 27.0304 0.693359H10.0043C9.11272 0.693359 8.34115 1.40575 8.15254 2.3877L0.042454 45.4394C-0.0775685 46.0556 0.0596001 46.7102 0.419667 47.2108C0.779735 47.7114 1.31126 48.0002 1.89423 48.0002H35.1576C35.7234 48.0002 36.2721 47.7114 36.615 47.2108C36.9751 46.7102 37.1123 46.0556 36.9922 45.4394L28.8821 2.3877ZM20.412 42.1278C20.412 42.8017 20.1548 43.3793 19.709 43.7644C19.4004 44.0724 18.9717 44.265 18.5088 44.265C18.0458 44.265 17.6172 44.0724 17.3085 43.7644C16.8799 43.3793 16.6056 42.8017 16.6056 42.1278V35.3311C16.6056 34.1567 17.4457 33.194 18.5088 33.194C19.5547 33.194 20.412 34.1374 20.412 35.3311V42.1278ZM20.412 26.6861C20.412 27.8606 19.5718 28.8233 18.5088 28.8233C17.4629 28.8233 16.6056 27.8799 16.6056 26.6861V20.1206C16.6056 18.9461 17.4457 17.9834 18.5088 17.9834C19.5547 17.9834 20.412 18.9268 20.412 20.1206V26.6861ZM20.412 11.7451C20.412 12.9196 19.5718 13.8823 18.5088 13.8823C17.4629 13.8823 16.6056 12.9388 16.6056 11.7451V6.58506C16.6056 5.91117 16.8627 5.33355 17.3085 4.94847C17.6172 4.64041 18.0458 4.44787 18.5088 4.44787C18.9717 4.44787 19.4004 4.64041 19.709 4.94847C20.1376 5.33355 20.412 5.91117 20.412 6.58506V11.7451Z" fill="#5E17EB"/>
</svg>
