<svg width="48" height="48" viewBox="0 0 48 48" fill="none" xmlns="http://www.w3.org/2000/svg">
<path d="M20.1512 4.30092H27.9816C28.7367 4.30092 29.3554 3.7579 29.3554 3.09522V1.20571C29.3554 0.543021 28.7367 0 27.9816 0H20.1512C19.3961 0 18.7773 0.543021 18.7773 1.20571V3.09522C18.7762 3.7579 19.3949 4.30092 20.1512 4.30092Z" fill="#5E17EB"/>
<path d="M24 5.86963C17.3578 5.86963 11.34 8.25188 6.9894 12.0922L12.2074 15.3986C15.3526 12.9058 19.5039 11.3732 24.0665 11.3732C33.8436 11.3732 41.7978 18.3541 41.7978 26.9348C41.7978 35.5155 33.8447 42.4964 24.0665 42.4964C14.2882 42.4964 6.33515 35.5165 6.33515 26.9348C6.33515 23.1387 7.89573 19.6593 10.4795 16.9553L6.56087 12.5076C2.50587 16.2815 0 21.3507 0 26.9348C0 38.5504 10.766 48 24 48C37.234 48 48 38.5504 48 26.9348C48 15.3192 37.234 5.86963 24 5.86963Z" fill="#5E17EB"/>
<path d="M24.1811 30.399C22.9666 30.399 21.8964 29.8881 21.1997 29.1088L21.1929 29.1168L12.5203 19.2731C10.6767 21.4069 9.56982 24.0557 9.56982 26.9337C9.56982 33.9487 16.0723 39.6544 24.0654 39.6544C32.0585 39.6544 38.5598 33.9477 38.5598 26.9337C38.5598 19.9197 32.0574 14.2119 24.0654 14.2119C20.5856 14.2119 17.3888 15.2949 14.8875 17.096L26.137 24.2236L26.1301 24.2316C27.2312 24.8129 27.9737 25.8617 27.9737 27.0714C27.9749 28.9087 26.2779 30.399 24.1811 30.399Z" fill="#5E17EB"/>
</svg>
