<svg width="48" height="48" viewBox="0 0 48 48" fill="none" xmlns="http://www.w3.org/2000/svg">
<path d="M38.4003 0H9.60007C4.29831 0 0 4.29828 0 9.6V38.4C0 43.7017 4.29796 48 9.60007 48H38.3999C43.7017 48 48 43.7017 48 38.4V9.6C48 4.29828 43.702 0 38.4003 0V0ZM43.2001 36.0001C43.2001 39.9764 39.9767 43.1998 36.0004 43.1998H12.0003C8.02368 43.1998 4.80021 39.9764 4.80021 36.0001V11.9999C4.80021 8.02327 8.02368 4.79982 12.0003 4.79982H36.0004C39.9767 4.79982 43.2001 8.02327 43.2001 11.9999V36.0001ZM37.8137 30.8233L30.7119 27.2212L30.168 27.0283C29.8268 27.0283 29.5492 27.168 29.3364 27.4462L26.2974 30.2122C25.9134 30.5979 25.4864 30.6518 25.0174 30.3729C23.5884 29.4937 22.2346 28.4112 20.9547 27.1246C19.7391 25.9241 18.6723 24.5626 17.7557 23.0401C17.4785 22.5897 17.5209 22.1613 17.8838 21.7536L20.9228 18.7307C21.1787 18.4734 21.3064 18.1952 21.3064 17.8945C21.3064 17.723 21.2529 17.5302 21.1465 17.3153L17.244 10.1757C17.0309 9.79005 16.7211 9.59685 16.3162 9.59685C14.1619 9.79005 12.5624 10.412 11.5177 11.4623C10.5363 12.4486 9.93922 13.7247 9.72607 15.2895C9.51292 16.855 9.64592 18.5273 10.1261 20.3067C10.606 22.0868 11.4218 23.9407 12.5733 25.8705C13.7248 27.8001 15.1325 29.612 16.796 31.3056C19.0353 33.5571 21.4289 35.3046 23.9776 36.5478C26.5259 37.7917 28.8986 38.4133 31.0955 38.4133C33.3134 38.4133 35.0729 37.7595 36.3738 36.4516C37.568 35.2724 38.2396 33.7178 38.3891 31.7882C38.3894 31.3595 38.1973 31.0379 37.8137 30.8233Z" fill="#5E17EB"/>
</svg>
