<svg width="48" height="48" viewBox="0 0 48 48" fill="none" xmlns="http://www.w3.org/2000/svg">
<path fill-rule="evenodd" clip-rule="evenodd" d="M24 48C37.2548 48 48 37.2548 48 24C48 10.7452 37.2548 0 24 0C10.7452 0 0 10.7452 0 24C0 37.2548 10.7452 48 24 48Z" fill="#5E17EB"/>
<path fill-rule="evenodd" clip-rule="evenodd" d="M12 17.4415V31.0317C12 31.7711 12.5412 32.3703 13.2867 32.3703H34.4965C35.2413 32.3703 35.7832 31.7641 35.7832 31.0317V17.4415C35.7832 16.6302 35.2986 16 34.4965 16H13.2867C12.4537 16 12 16.6457 12 17.4415ZM13.9556 18.6253C13.9556 18.2978 14.1538 18.1105 14.4705 18.1105C14.6663 18.1105 22.3734 22.9941 22.8403 23.2805L24.0465 24.0307C24.4289 23.7745 24.8129 23.5554 25.2093 23.2898C26.0183 22.7726 33.2168 18.1105 33.415 18.1105C33.7324 18.1105 33.9298 18.2978 33.9298 18.6253C33.9298 18.9721 33.2617 19.3166 32.8266 19.5822C30.0929 21.2483 27.36 23.0645 24.6534 24.7925C24.4955 24.8994 24.1897 25.1277 23.9605 25.0929C23.705 25.0534 15.8625 20.015 14.4356 19.1757C14.2212 19.0495 13.9556 18.9342 13.9556 18.6253Z" fill="white"/>
</svg>
