<svg width="237" height="215" viewBox="0 0 237 215" fill="none" xmlns="http://www.w3.org/2000/svg">
<g clip-path="url(#clip0_366_146)">
<path d="M110.783 117.263C110.783 120.667 108.42 123.43 105.51 123.43H47.4856C44.5708 123.43 42.2078 120.667 42.2078 117.263V92.584C42.2078 89.1792 44.5708 86.4169 47.4856 86.4169H55.3978C59.7677 86.4169 63.31 82.2762 63.31 77.1612C63.31 72.0513 59.7677 67.9105 55.3978 67.9105H47.4856C44.5708 67.9105 42.2078 65.1483 42.2078 61.7383V37.0648C42.2078 33.6548 44.5708 30.8926 47.4856 30.8926H63.31V24.7255C63.3189 14.4903 70.4256 6.1984 79.1789 6.20876C80.2246 6.20876 81.2704 6.33314 82.2984 6.57671C89.8101 8.56676 95.0967 16.4492 94.9588 25.4562V30.8926H110.783V117.263ZM176.72 37.0648H184.632C187.547 37.0648 189.91 34.3026 189.91 30.8926V6.21913C189.91 2.8091 187.547 0.046875 184.632 0.046875H126.608C123.697 0.046875 121.334 2.8091 121.334 6.21913V92.584H137.159V98.0255C137.021 107.033 142.307 114.915 149.819 116.905C158.399 118.931 166.76 112.438 168.496 102.405C168.701 101.202 168.807 99.9793 168.807 98.7563V92.584H184.632C187.547 92.584 189.91 89.8218 189.91 86.4169V61.7383C189.91 58.3335 187.547 55.5712 184.632 55.5712H176.72C172.35 55.5712 168.807 51.4305 168.807 46.3154C168.807 41.2056 172.35 37.0648 176.72 37.0648Z" fill="#5E17EB"/>
<path d="M17.855 179.634H7.34844V169.932H21.8779C22.1582 169.932 22.3896 169.663 22.3896 169.445V162.604C22.3896 162.335 22.1582 162.117 21.8779 162.117H7.34844V152.364H17.855V144.549H0.775708C0.499805 144.549 0.268402 144.818 0.268402 145.036V187.174C0.268402 187.392 0.499805 187.661 0.775708 187.661H17.855V179.634Z" fill="#FFD51E"/>
<path d="M31.9209 144.549H25.8555C25.5795 144.549 25.3481 144.818 25.3481 145.036V161.956H32.4282V152.415C40.4783 151.934 46.4503 155.867 46.4503 166.107C46.4503 179.416 36.9183 179.955 32.4282 179.737V170.253H25.3481V187.174C25.3481 187.392 25.5795 187.661 25.8555 187.661H31.9209C41.128 187.661 53.5749 184.536 53.5749 166.107C53.5749 146.974 40.9411 144.549 31.9209 144.549Z" fill="#FFD51E"/>
<path d="M84.1607 144.549H78.1442C77.8238 144.549 77.6369 144.818 77.6369 145.036V173.275C77.6369 177.638 74.2148 179.737 70.7438 179.737C67.3172 179.737 64.2645 177.478 63.8462 173.218V152.364H56.8596V173.275C56.8596 182.163 63.1075 187.661 70.7438 187.661C78.607 187.661 84.6235 182.38 84.6235 173.275V145.036C84.6235 144.818 84.3921 144.549 84.1607 144.549Z" fill="#FFD51E"/>
<path d="M95.4984 160.179V187.174C95.4984 187.392 95.6808 187.661 96.0057 187.661H101.978C102.298 187.661 102.529 187.392 102.529 187.174V160.179H95.4984ZM88.3694 151.934H109.609C109.934 151.934 110.121 151.716 110.121 151.446V145.036C110.121 144.818 109.934 144.549 109.609 144.549H88.3694C88.0935 144.549 87.8621 144.818 87.8621 145.036V151.446C87.8621 151.716 88.0935 151.934 88.3694 151.934Z" fill="#FFD51E"/>
<path d="M128.166 180.276H124.464V144.549H117.384V180.276H113.588C113.312 180.276 113.081 180.494 113.081 180.763V187.174C113.081 187.392 113.312 187.661 113.588 187.661H128.166C128.491 187.661 128.674 187.392 128.674 187.174V180.763C128.674 180.494 128.491 180.276 128.166 180.276Z" fill="#FFD51E"/>
<path d="M148.294 163.734C145.659 162.278 143.065 162.278 142.833 162.278C140.475 162.278 138.205 160.661 138.205 157.536C138.205 154.089 140.288 152.307 142.833 152.307C145.241 152.307 147.279 153.763 147.368 156.836C147.368 156.997 147.599 157.266 147.88 157.266H153.665C153.985 157.266 154.217 156.997 154.172 156.836C154.079 149.508 149.175 144.549 142.833 144.549C136.91 144.549 131.312 149.451 131.312 157.536C131.312 162.547 133.488 166.377 137.329 168.424C140.012 169.875 142.508 169.875 142.833 169.875C144.916 169.984 147.461 171.927 147.461 175.104C147.461 177.96 145.285 179.903 142.833 179.903C142.833 179.903 142.833 179.903 142.789 179.903V187.661C142.833 187.661 142.833 187.661 142.833 187.661C148.756 187.661 154.31 183.189 154.31 175.104C154.31 170.041 152.183 165.838 148.294 163.734Z" fill="#FFD51E"/>
<path d="M190.448 177.26H197.483V145.036C197.483 144.818 197.297 144.549 196.976 144.549H190.866C190.679 144.549 190.448 144.709 190.359 144.87L177.725 176.452L164.442 144.87C164.397 144.709 164.121 144.549 163.979 144.549H157.78C157.455 144.549 157.317 144.818 157.317 145.036V187.174C157.317 187.392 157.455 187.661 157.78 187.661H163.89C164.166 187.661 164.397 187.392 164.397 187.174V162.977L174.441 185.614C174.486 185.775 174.761 185.935 174.904 185.935H180.596C180.733 185.935 180.965 185.775 181.009 185.614L190.448 163.573V177.26Z" fill="#FFD51E"/>
<path d="M222.653 166.211C222.653 163.952 221.127 162.117 219.186 162.117C217.242 162.117 215.715 163.952 215.715 166.211C215.715 168.424 217.242 170.253 219.186 170.253C221.127 170.253 222.653 168.424 222.653 166.211ZM237 166.05C237 155.328 231.032 144.549 219.231 144.549C207.247 144.549 201.368 155.328 201.368 166.05C201.368 176.83 207.247 187.661 219.231 187.661C231.032 187.661 237 176.83 237 166.05ZM230.058 166.211C230.058 173.166 226.404 180.115 219.231 180.115C211.964 180.115 208.355 173.166 208.355 166.211C208.355 159.153 211.964 152.146 219.231 152.146C226.404 152.146 230.058 159.153 230.058 166.211Z" fill="#FFD51E"/>
<path d="M29.7263 208.366H25.6678L24.5286 211.6H23.1224L27.7504 198.769H27.8394L32.4675 211.6H30.8299L29.7263 208.366ZM29.2457 206.936L27.7326 202.438L26.1662 206.936H29.2457Z" fill="#5E17EB"/>
<path d="M37.5902 204.262C38.1598 204.262 38.6671 204.423 39.1211 204.739C39.5839 205.06 39.9443 205.506 40.2069 206.086C40.465 206.656 40.5985 207.309 40.5985 208.055C40.5985 208.791 40.4561 209.439 40.1713 210.004C39.8954 210.574 39.5127 211.009 39.0142 211.31C38.5158 211.611 37.9551 211.766 37.341 211.766C36.9005 211.766 36.4777 211.652 36.0772 211.434C35.6856 211.217 35.3652 210.916 35.116 210.543V215H33.7632V204.428H34.938L35.0626 205.609C35.3697 205.21 35.739 204.884 36.1662 204.635C36.6023 204.386 37.0785 204.262 37.5902 204.262ZM37.074 210.502C37.4523 210.502 37.8038 210.398 38.1242 210.191C38.4535 209.973 38.7161 209.683 38.9074 209.32C39.1077 208.947 39.2101 208.532 39.2101 208.076C39.2101 207.61 39.1211 207.185 38.943 206.812C38.765 206.439 38.5158 206.148 38.1954 205.941C37.8839 205.723 37.5413 205.609 37.163 205.609C36.6513 205.609 36.2107 205.775 35.8458 206.107C35.4765 206.439 35.2317 206.889 35.116 207.454V208.636C35.1961 209.175 35.4186 209.626 35.7746 209.983C36.1395 210.331 36.5756 210.502 37.074 210.502Z" fill="#5E17EB"/>
<path d="M43.4126 206.211C43.5639 205.827 43.7864 205.485 44.0712 205.195C44.356 204.905 44.6586 204.687 44.979 204.531C45.2994 204.366 45.5842 204.278 45.8334 204.262L45.78 205.837C45.3395 205.827 44.9434 205.931 44.5874 206.148C44.2314 206.371 43.9511 206.687 43.7508 207.102C43.5461 207.506 43.4482 207.931 43.4482 208.387V211.6H42.0954V204.552H43.3058L43.4126 206.211Z" fill="#5E17EB"/>
<path d="M50.0857 210.398C50.593 210.398 51.0869 210.201 51.5631 209.797L52.1861 210.978C51.8657 211.227 51.5141 211.424 51.1359 211.559C50.7665 211.694 50.4061 211.766 50.0501 211.766C49.3826 211.766 48.7952 211.605 48.2879 211.289C47.7894 210.958 47.4023 210.512 47.1308 209.942C46.8549 209.377 46.7214 208.734 46.7214 208.014C46.7214 207.325 46.8683 206.698 47.1664 206.128C47.4601 205.547 47.8651 205.091 48.3769 204.759C48.8975 204.428 49.4671 204.262 50.0857 204.262C50.8778 204.262 51.5364 204.531 52.0615 205.07C52.5955 205.609 52.9604 206.366 53.1651 207.33L48.3591 209.279C48.5371 209.641 48.7729 209.916 49.0711 210.108C49.3648 210.305 49.703 210.398 50.0857 210.398ZM49.9789 205.526C49.4182 205.526 48.9643 205.754 48.6083 206.211C48.2523 206.656 48.0743 207.226 48.0743 207.931C48.0743 208.112 48.0743 208.242 48.0743 208.325L51.6165 206.812C51.4607 206.428 51.2471 206.117 50.9757 205.879C50.7131 205.646 50.3794 205.526 49.9789 205.526Z" fill="#5E17EB"/>
<path d="M58.2764 204.283C58.846 204.283 59.3132 204.48 59.6826 204.863C60.0475 205.252 60.2388 205.755 60.2522 206.376V211.6H58.8816V206.936C58.8549 206.537 58.7481 206.226 58.5612 206.003C58.3832 205.77 58.1028 205.646 57.7245 205.63C57.1905 205.63 56.7455 205.889 56.3895 206.397C56.0424 206.895 55.8733 207.532 55.8733 208.304V211.6H54.5205V204.552H55.7487L55.8377 205.9C56.0513 205.392 56.3717 204.998 56.7989 204.718C57.2261 204.428 57.7156 204.283 58.2764 204.283Z" fill="#5E17EB"/>
<path d="M68.5871 198.396V211.601H67.1987V210.502C66.9139 210.891 66.5579 211.201 66.1307 211.435C65.7035 211.652 65.2407 211.766 64.7422 211.766C64.1726 211.766 63.6564 211.606 63.1936 211.29C62.7397 210.973 62.3837 210.533 62.1256 209.963C61.8631 209.382 61.734 208.719 61.734 207.973C61.734 207.216 61.8675 206.553 62.1434 205.983C62.4149 205.418 62.7887 204.988 63.2648 204.698C63.7499 204.407 64.2972 204.262 64.9024 204.262C65.3519 204.262 65.7925 204.376 66.2197 204.594C66.6469 204.817 66.9762 205.123 67.2165 205.506V198.396H68.5871ZM65.1517 210.398C65.6857 210.398 66.1307 210.243 66.4867 209.921C66.8516 209.59 67.0919 209.149 67.1987 208.595V207.247C67.0919 206.739 66.8427 206.325 66.4511 206.004C66.0684 205.687 65.6367 205.527 65.1517 205.527C64.7823 205.527 64.4396 205.63 64.1192 205.838C63.8077 206.045 63.5585 206.335 63.3716 206.708C63.1936 207.071 63.1046 207.486 63.1046 207.952C63.1046 208.408 63.1936 208.823 63.3716 209.196C63.5585 209.569 63.8077 209.87 64.1192 210.087C64.4396 210.295 64.7823 210.398 65.1517 210.398Z" fill="#5E17EB"/>
<path d="M73.4305 210.398C73.9378 210.398 74.4317 210.201 74.9079 209.797L75.5309 210.978C75.2105 211.227 74.8589 211.424 74.4807 211.559C74.1113 211.694 73.7509 211.766 73.3949 211.766C72.7274 211.766 72.14 211.605 71.6326 211.289C71.1342 210.958 70.7471 210.512 70.4756 209.942C70.1997 209.377 70.0662 208.734 70.0662 208.014C70.0662 207.325 70.2131 206.698 70.5112 206.128C70.8049 205.547 71.2099 205.091 71.7216 204.759C72.2423 204.428 72.8119 204.262 73.4305 204.262C74.2226 204.262 74.8812 204.531 75.4063 205.07C75.9403 205.609 76.3052 206.366 76.5099 207.33L71.7038 209.279C71.8818 209.641 72.1177 209.916 72.4159 210.108C72.7096 210.305 73.0478 210.398 73.4305 210.398ZM73.3237 205.526C72.763 205.526 72.3091 205.754 71.953 206.211C71.597 206.656 71.419 207.226 71.419 207.931C71.419 208.112 71.419 208.242 71.419 208.325L74.9613 206.812C74.8055 206.428 74.5919 206.117 74.3205 205.879C74.0579 205.646 73.7242 205.526 73.3237 205.526Z" fill="#5E17EB"/>
<path d="M79.1825 206.211C79.3338 205.827 79.5563 205.485 79.8411 205.195C80.1259 204.905 80.4285 204.687 80.7489 204.531C81.0693 204.366 81.3541 204.278 81.6033 204.262L81.5499 205.837C81.1094 205.827 80.7133 205.931 80.3573 206.148C80.0013 206.371 79.721 206.687 79.5207 207.102C79.316 207.506 79.2181 207.931 79.2181 208.387V211.6H77.8653V204.552H79.0757L79.1825 206.211Z" fill="#5E17EB"/>
<path d="M89.2663 201.443V204.573H90.9217V205.817H89.2663V211.6H87.8778V205.817H86.7742V204.573H87.8778V201.443H89.2663Z" fill="#5E17EB"/>
<path d="M98.4466 204.552V211.6H97.076V210.439C96.8624 210.771 96.5465 211.077 96.1326 211.352C95.7276 211.626 95.2693 211.766 94.762 211.766C94.179 211.766 93.6584 211.621 93.1956 211.331C92.7328 211.041 92.3634 210.621 92.092 210.066C91.8294 209.517 91.7003 208.854 91.7003 208.076C91.7003 207.304 91.8338 206.636 92.1098 206.065C92.3946 205.485 92.7728 205.045 93.249 204.739C93.7207 204.423 94.2458 204.262 94.8154 204.262C95.336 204.262 95.7855 204.397 96.1682 204.656C96.5465 204.92 96.8491 205.257 97.076 205.672L97.1828 204.552H98.4466ZM95.118 210.46C95.6164 210.46 96.0436 210.305 96.3996 209.983C96.7556 209.652 96.9781 209.211 97.076 208.657V207.247C96.9692 206.75 96.7245 206.35 96.3462 206.045C95.9769 205.729 95.5541 205.568 95.0824 205.568C94.713 205.568 94.3748 205.672 94.0678 205.879C93.7696 206.086 93.5249 206.376 93.338 206.75C93.16 207.112 93.071 207.527 93.071 207.993C93.071 208.449 93.16 208.864 93.338 209.237C93.5249 209.61 93.7741 209.911 94.0856 210.128C94.406 210.351 94.7486 210.46 95.118 210.46Z" fill="#5E17EB"/>
<path d="M108.24 204.262C108.818 204.262 109.281 204.459 109.628 204.842C109.984 205.231 110.167 205.744 110.18 206.376V211.6H108.827V206.957C108.792 206.128 108.471 205.687 107.866 205.63C107.51 205.63 107.19 205.754 106.905 206.003C106.629 206.252 106.415 206.579 106.264 206.978C106.108 207.366 106.024 207.786 106.015 208.242V211.6H104.644V206.957C104.609 206.128 104.275 205.687 103.647 205.63C103.3 205.63 102.989 205.754 102.704 206.003C102.428 206.252 102.214 206.579 102.063 206.978C101.907 207.382 101.832 207.807 101.832 208.263V211.6H100.479V204.552H101.707L101.796 205.879C102.032 205.371 102.352 204.977 102.757 204.697C103.158 204.407 103.621 204.262 104.146 204.262C104.631 204.262 105.04 204.397 105.374 204.656C105.703 204.92 105.917 205.288 106.015 205.754C106.264 205.288 106.584 204.92 106.976 204.656C107.368 204.397 107.786 204.262 108.24 204.262Z" fill="#5E17EB"/>
<path d="M116.065 204.262C116.608 204.262 117.107 204.418 117.56 204.718C118.023 205.024 118.384 205.459 118.646 206.024C118.904 206.579 119.038 207.221 119.038 207.952C119.038 208.729 118.895 209.403 118.611 209.984C118.335 210.564 117.956 211.01 117.471 211.31C116.982 211.611 116.461 211.766 115.905 211.766C115.407 211.766 114.948 211.652 114.534 211.435C114.129 211.201 113.805 210.891 113.555 210.502V211.601H112.203V198.396H113.555V205.485C113.805 205.112 114.147 204.817 114.588 204.594C115.037 204.376 115.531 204.262 116.065 204.262ZM115.602 210.398C116.194 210.398 116.679 210.17 117.062 209.714C117.454 209.248 117.649 208.657 117.649 207.952C117.649 207.496 117.56 207.092 117.382 206.729C117.204 206.356 116.955 206.066 116.635 205.858C116.323 205.641 115.981 205.527 115.602 205.527C115.104 205.527 114.663 205.687 114.285 206.004C113.916 206.309 113.671 206.719 113.555 207.227V208.657C113.671 209.17 113.916 209.59 114.285 209.921C114.65 210.243 115.091 210.398 115.602 210.398Z" fill="#5E17EB"/>
<path d="M123.365 210.398C123.872 210.398 124.366 210.201 124.842 209.797L125.465 210.979C125.145 211.227 124.794 211.424 124.415 211.559C124.046 211.694 123.685 211.766 123.329 211.766C122.662 211.766 122.075 211.606 121.567 211.289C121.069 210.958 120.682 210.512 120.41 209.942C120.134 209.377 120.001 208.735 120.001 208.014C120.001 207.325 120.148 206.698 120.446 206.128C120.74 205.547 121.144 205.091 121.656 204.76C122.177 204.428 122.746 204.262 123.365 204.262C124.157 204.262 124.816 204.532 125.341 205.071C125.875 205.61 126.24 206.366 126.444 207.33L121.638 209.279C121.816 209.641 122.052 209.916 122.35 210.108C122.644 210.305 122.982 210.398 123.365 210.398ZM123.258 205.527C122.698 205.527 122.244 205.755 121.888 206.211C121.532 206.656 121.354 207.226 121.354 207.931C121.354 208.113 121.354 208.242 121.354 208.325L124.896 206.812C124.74 206.428 124.527 206.117 124.255 205.879C123.992 205.646 123.659 205.527 123.258 205.527ZM124.291 203.329H123.418L124.629 201.028H126.16L124.291 203.329Z" fill="#5E17EB"/>
<path d="M135.561 204.262C136.139 204.262 136.602 204.459 136.949 204.842C137.305 205.231 137.488 205.744 137.501 206.376V211.6H136.148V206.957C136.113 206.128 135.792 205.687 135.187 205.63C134.831 205.63 134.511 205.754 134.226 206.003C133.95 206.252 133.736 206.579 133.585 206.978C133.429 207.366 133.345 207.786 133.336 208.242V211.6H131.965V206.957C131.93 206.128 131.596 205.687 130.968 205.63C130.621 205.63 130.31 205.754 130.025 206.003C129.749 206.252 129.535 206.579 129.384 206.978C129.228 207.382 129.153 207.807 129.153 208.263V211.6H127.8V204.552H129.028L129.117 205.879C129.353 205.371 129.673 204.977 130.078 204.697C130.479 204.407 130.942 204.262 131.467 204.262C131.952 204.262 132.361 204.397 132.695 204.656C133.024 204.92 133.238 205.288 133.336 205.754C133.585 205.288 133.905 204.92 134.297 204.656C134.689 204.397 135.107 204.262 135.561 204.262Z" fill="#5E17EB"/>
<path d="M146.637 210.398C147.144 210.398 147.638 210.201 148.114 209.797L148.737 210.979C148.417 211.227 148.065 211.424 147.687 211.559C147.318 211.694 146.957 211.766 146.601 211.766C145.934 211.766 145.346 211.606 144.839 211.289C144.341 210.958 143.953 210.512 143.682 209.942C143.406 209.377 143.272 208.735 143.272 208.014C143.272 207.325 143.419 206.698 143.717 206.128C144.011 205.547 144.416 205.091 144.928 204.76C145.449 204.428 146.018 204.262 146.637 204.262C147.429 204.262 148.087 204.532 148.613 205.071C149.147 205.61 149.511 206.366 149.716 207.33L144.91 209.279C145.088 209.641 145.324 209.916 145.622 210.108C145.916 210.305 146.254 210.398 146.637 210.398ZM146.53 205.527C145.969 205.527 145.515 205.755 145.159 206.211C144.803 206.656 144.625 207.226 144.625 207.931C144.625 208.113 144.625 208.242 144.625 208.325L148.168 206.812C148.012 206.428 147.798 206.117 147.527 205.879C147.264 205.646 146.93 205.527 146.53 205.527ZM147.562 203.329H146.69L147.901 201.028H149.431L147.562 203.329Z" fill="#5E17EB"/>
<path d="M161.674 198.396V211.601H160.285V210.502C160 210.891 159.644 211.201 159.217 211.435C158.79 211.652 158.327 211.766 157.829 211.766C157.259 211.766 156.743 211.606 156.28 211.29C155.826 210.973 155.47 210.533 155.212 209.963C154.95 209.382 154.82 208.719 154.82 207.973C154.82 207.216 154.954 206.553 155.23 205.983C155.501 205.418 155.875 204.988 156.351 204.698C156.836 204.407 157.384 204.262 157.989 204.262C158.438 204.262 158.879 204.376 159.306 204.594C159.733 204.817 160.063 205.123 160.303 205.506V198.396H161.674ZM158.238 210.398C158.772 210.398 159.217 210.243 159.573 209.921C159.938 209.59 160.178 209.149 160.285 208.595V207.247C160.178 206.739 159.929 206.325 159.538 206.004C159.155 205.687 158.723 205.527 158.238 205.527C157.869 205.527 157.526 205.63 157.206 205.838C156.894 206.045 156.645 206.335 156.458 206.708C156.28 207.071 156.191 207.486 156.191 207.952C156.191 208.408 156.28 208.823 156.458 209.196C156.645 209.569 156.894 209.87 157.206 210.087C157.526 210.295 157.869 210.398 158.238 210.398Z" fill="#5E17EB"/>
<path d="M165.04 204.552V211.6H163.687V204.552H165.04ZM163.259 201.878C163.259 201.629 163.34 201.422 163.509 201.256C163.673 201.08 163.865 200.987 164.078 200.987C164.292 200.987 164.474 201.08 164.63 201.256C164.795 201.422 164.879 201.629 164.879 201.878C164.879 202.127 164.795 202.334 164.63 202.5C164.474 202.666 164.292 202.749 164.078 202.749C163.865 202.749 163.673 202.666 163.509 202.5C163.34 202.334 163.259 202.127 163.259 201.878Z" fill="#5E17EB"/>
<path d="M172.827 204.552L169.606 211.808H169.534L166.17 204.552H167.79L169.623 209.051L171.314 204.552H172.827Z" fill="#5E17EB"/>
<path d="M176.793 210.398C177.3 210.398 177.794 210.201 178.271 209.797L178.894 210.978C178.573 211.227 178.222 211.424 177.843 211.559C177.474 211.694 177.114 211.766 176.758 211.766C176.09 211.766 175.503 211.605 174.995 211.289C174.497 210.958 174.11 210.512 173.838 209.942C173.562 209.377 173.429 208.734 173.429 208.014C173.429 207.325 173.576 206.698 173.874 206.128C174.168 205.547 174.573 205.091 175.084 204.759C175.605 204.428 176.175 204.262 176.793 204.262C177.585 204.262 178.244 204.531 178.769 205.07C179.303 205.609 179.668 206.366 179.873 207.33L175.067 209.279C175.245 209.641 175.48 209.916 175.779 210.108C176.072 210.305 176.41 210.398 176.793 210.398ZM176.686 205.526C176.126 205.526 175.672 205.754 175.316 206.211C174.96 206.656 174.782 207.226 174.782 207.931C174.782 208.112 174.782 208.242 174.782 208.325L178.324 206.812C178.168 206.428 177.955 206.117 177.683 205.879C177.421 205.646 177.087 205.526 176.686 205.526Z" fill="#5E17EB"/>
<path d="M182.545 206.211C182.696 205.827 182.919 205.485 183.204 205.195C183.489 204.905 183.791 204.687 184.112 204.531C184.432 204.366 184.717 204.278 184.966 204.262L184.913 205.837C184.472 205.827 184.076 205.931 183.72 206.148C183.364 206.371 183.084 206.687 182.883 207.102C182.679 207.506 182.581 207.931 182.581 208.387V211.6H181.228V204.552H182.438L182.545 206.211Z" fill="#5E17EB"/>
<path d="M188.346 201.443V204.573H190.001V205.817H188.346V211.6H186.958V205.817H185.854V204.573H186.958V201.443H188.346Z" fill="#5E17EB"/>
<path d="M192.667 204.552V211.6H191.314V204.552H192.667ZM190.887 201.878C190.887 201.629 190.967 201.422 191.136 201.256C191.301 201.08 191.492 200.987 191.706 200.987C191.919 200.987 192.102 201.08 192.258 201.256C192.422 201.422 192.507 201.629 192.507 201.878C192.507 202.127 192.422 202.334 192.258 202.5C192.102 202.666 191.919 202.749 191.706 202.749C191.492 202.749 191.301 202.666 191.136 202.5C190.967 202.334 190.887 202.127 190.887 201.878Z" fill="#5E17EB"/>
<path d="M201.024 198.396V211.601H199.636V210.502C199.351 210.891 198.995 211.201 198.568 211.435C198.141 211.652 197.678 211.766 197.18 211.766C196.61 211.766 196.094 211.606 195.631 211.29C195.177 210.973 194.821 210.533 194.563 209.963C194.3 209.382 194.171 208.719 194.171 207.973C194.171 207.216 194.305 206.553 194.581 205.983C194.852 205.418 195.226 204.988 195.702 204.698C196.187 204.407 196.735 204.262 197.34 204.262C197.789 204.262 198.23 204.376 198.657 204.594C199.084 204.817 199.413 205.123 199.654 205.506V198.396H201.024ZM197.589 210.398C198.123 210.398 198.568 210.243 198.924 209.921C199.289 209.59 199.529 209.149 199.636 208.595V207.247C199.529 206.739 199.28 206.325 198.888 206.004C198.506 205.687 198.074 205.527 197.589 205.527C197.22 205.527 196.877 205.63 196.557 205.838C196.245 206.045 195.996 206.335 195.809 206.708C195.631 207.071 195.542 207.486 195.542 207.952C195.542 208.408 195.631 208.823 195.809 209.196C195.996 209.569 196.245 209.87 196.557 210.087C196.877 210.295 197.22 210.398 197.589 210.398Z" fill="#5E17EB"/>
<path d="M202.504 208.014C202.504 207.309 202.646 206.677 202.931 206.107C203.216 205.526 203.612 205.081 204.123 204.759C204.644 204.428 205.227 204.262 205.868 204.262C206.509 204.262 207.078 204.428 207.577 204.759C208.084 205.081 208.476 205.526 208.751 206.107C209.036 206.677 209.179 207.309 209.179 208.014C209.179 208.719 209.036 209.361 208.751 209.942C208.476 210.512 208.084 210.958 207.577 211.289C207.065 211.605 206.482 211.766 205.832 211.766C205.2 211.766 204.631 211.611 204.123 211.31C203.612 210.994 203.216 210.553 202.931 209.983C202.646 209.418 202.504 208.76 202.504 208.014ZM203.874 208.014C203.874 208.46 203.954 208.874 204.123 209.258C204.301 209.631 204.537 209.932 204.835 210.149C205.129 210.356 205.463 210.46 205.832 210.46C206.388 210.46 206.851 210.232 207.221 209.776C207.599 209.31 207.79 208.719 207.79 208.014C207.79 207.325 207.599 206.744 207.221 206.273C206.851 205.806 206.388 205.568 205.832 205.568C205.45 205.568 205.111 205.682 204.818 205.9C204.533 206.122 204.301 206.418 204.123 206.791C203.954 207.164 203.874 207.574 203.874 208.014Z" fill="#5E17EB"/>
<path d="M91.9995 118.366C91.9995 118.999 91.5634 119.512 91.0249 119.512H80.2914C79.7529 119.512 79.3168 118.999 79.3168 118.366V113.79C79.3168 113.158 79.7529 112.645 80.2914 112.645H81.7555C82.5609 112.645 83.2195 111.878 83.2195 110.93C83.2195 109.981 82.5609 109.214 81.7555 109.214H80.2914C79.7529 109.214 79.3168 108.701 79.3168 108.069V103.493C79.3168 102.861 79.7529 102.348 80.2914 102.348H83.2195V101.202C83.2195 99.3055 84.5323 97.7664 86.1521 97.7664C86.3479 97.7664 86.5393 97.7923 86.7306 97.8389C88.119 98.2069 89.0981 99.6683 89.0714 101.337V102.348H91.9995V118.366ZM104.197 103.493H105.661C106.2 103.493 106.636 102.98 106.636 102.348V97.7715C106.636 97.1393 106.2 96.6262 105.661 96.6262H94.9276C94.3892 96.6262 93.9486 97.1393 93.9486 97.7715V113.79H96.8768V114.801C96.8545 116.47 97.8291 117.931 99.2175 118.299C100.806 118.677 102.355 117.475 102.675 115.609C102.711 115.387 102.733 115.164 102.733 114.936V113.79H105.661C106.2 113.79 106.636 113.277 106.636 112.645V108.069C106.636 107.437 106.2 106.924 105.661 106.924H104.197C103.387 106.924 102.733 106.157 102.733 105.208C102.733 104.26 103.387 103.493 104.197 103.493Z" fill="#FFD51E"/>
<path d="M138.974 27.8764C138.974 28.5087 138.534 29.0218 137.995 29.0218H127.266C126.723 29.0218 126.287 28.5087 126.287 27.8764V23.3004C126.287 22.6681 126.723 22.1551 127.266 22.1551H128.726C129.536 22.1551 130.19 21.3881 130.19 20.4397C130.19 19.4913 129.536 18.7191 128.726 18.7191H127.266C126.723 18.7191 126.287 18.2112 126.287 17.579V12.9977C126.287 12.3707 126.723 11.8576 127.266 11.8576H130.19V10.7123C130.194 8.81035 131.507 7.27636 133.127 7.27636C133.318 7.27636 133.514 7.30227 133.705 7.34373C135.094 7.71168 136.073 9.17831 136.046 10.847V11.8576H138.974V27.8764ZM151.167 12.9977H152.632C153.17 12.9977 153.606 12.4899 153.606 11.8576V7.27636C153.606 6.64929 153.17 6.13623 152.632 6.13623H141.898C141.36 6.13623 140.923 6.64929 140.923 7.27636V23.3004H143.852V24.3058C143.825 25.9797 144.804 27.4411 146.192 27.8091C147.781 28.1874 149.325 26.9799 149.646 25.1194C149.686 24.8966 149.703 24.6685 149.703 24.4405V23.3004H152.632C153.17 23.3004 153.606 22.7873 153.606 22.1551V17.579C153.606 16.9467 153.17 16.4337 152.632 16.4337H151.167C150.362 16.4337 149.703 15.6667 149.703 14.7183C149.703 13.7699 150.362 12.9977 151.167 12.9977Z" fill="#FFD51E"/>
</g>
<defs>
<clipPath id="clip0_366_146">
<rect width="237" height="215" fill="white"/>
</clipPath>
</defs>
</svg>
