<svg width="181" height="151" viewBox="0 0 181 151" fill="none" xmlns="http://www.w3.org/2000/svg">
<path d="M84.2986 81.8434C84.2986 84.2188 82.5019 86.1469 80.2893 86.1469H36.1702C33.9539 86.1469 32.1572 84.2188 32.1572 81.8434V64.6217C32.1572 62.2458 33.9539 60.3182 36.1702 60.3182H42.1862C45.5089 60.3182 48.2023 57.4287 48.2023 53.8593C48.2023 50.2935 45.5089 47.4039 42.1862 47.4039H36.1702C33.9539 47.4039 32.1572 45.4764 32.1572 43.0968V25.879C32.1572 23.4994 33.9539 21.5718 36.1702 21.5718H48.2023V17.2683C48.2091 10.1259 53.6127 4.33957 60.2683 4.3468C61.0634 4.3468 61.8586 4.4336 62.6402 4.60357C68.3518 5.99228 72.3715 11.4929 72.2666 17.7782V21.5718H84.2986V81.8434ZM134.434 25.879H140.45C142.667 25.879 144.463 23.9514 144.463 21.5718V4.35404C144.463 1.97443 142.667 0.046875 140.45 0.046875H96.3313C94.1179 0.046875 92.3211 1.97443 92.3211 4.35404V64.6217H104.354V68.419C104.249 74.7046 108.268 80.2049 113.98 81.5936C120.504 83.0074 126.861 78.4764 128.181 71.4751C128.337 70.6356 128.417 69.7824 128.417 68.9289V64.6217H140.45C142.667 64.6217 144.463 62.6942 144.463 60.3182V43.0968C144.463 40.7208 142.667 38.7932 140.45 38.7932H134.434C131.111 38.7932 128.417 35.9037 128.417 32.3343C128.417 28.7685 131.111 25.879 134.434 25.879Z" fill="#5E17EB"/>
<path d="M13.6404 125.368H5.65171V118.597H16.6993C16.9124 118.597 17.0883 118.41 17.0883 118.257V113.484C17.0883 113.296 16.9124 113.144 16.6993 113.144H5.65171V106.338H13.6404V100.884H0.654104C0.44432 100.884 0.268372 101.072 0.268372 101.224V130.629C0.268372 130.781 0.44432 130.969 0.654104 130.969H13.6404V125.368Z" fill="#FFD51E"/>
<path d="M24.3355 100.884H19.7236C19.5138 100.884 19.3378 101.072 19.3378 101.224V113.031H24.7212V106.373C30.8421 106.038 35.383 108.782 35.383 115.928C35.383 125.215 28.1353 125.592 24.7212 125.439V118.821H19.3378V130.629C19.3378 130.781 19.5138 130.969 19.7236 130.969H24.3355C31.3362 130.969 40.8002 128.788 40.8002 115.928C40.8002 102.577 31.194 100.884 24.3355 100.884Z" fill="#FFD51E"/>
<path d="M64.0562 100.884H59.4816C59.238 100.884 59.0958 101.072 59.0958 101.224V120.93C59.0958 123.975 56.4938 125.439 53.8546 125.439C51.2492 125.439 48.9281 123.863 48.61 120.89V106.338H43.2977V120.93C43.2977 127.132 48.0483 130.969 53.8546 130.969C59.8335 130.969 64.4081 127.284 64.4081 120.93V101.224C64.4081 101.072 64.2322 100.884 64.0562 100.884Z" fill="#FFD51E"/>
<path d="M72.677 111.791V130.629C72.677 130.781 72.8157 130.969 73.0627 130.969H77.6038C77.8471 130.969 78.0227 130.781 78.0227 130.629V111.791H72.677ZM67.2564 106.038H83.406C83.6531 106.038 83.7953 105.886 83.7953 105.697V101.224C83.7953 101.072 83.6531 100.884 83.406 100.884H67.2564C67.0466 100.884 66.8707 101.072 66.8707 101.224V105.697C66.8707 105.886 67.0466 106.038 67.2564 106.038Z" fill="#FFD51E"/>
<path d="M97.516 125.816H94.7011V100.884H89.3178V125.816H86.4315C86.2217 125.816 86.046 125.968 86.046 126.155V130.629C86.046 130.781 86.2217 130.969 86.4315 130.969H97.516C97.7631 130.969 97.9022 130.781 97.9022 130.629V126.155C97.9022 125.968 97.7631 125.816 97.516 125.816Z" fill="#FFD51E"/>
<path d="M112.82 114.272C110.817 113.256 108.844 113.256 108.668 113.256C106.875 113.256 105.149 112.128 105.149 109.947C105.149 107.542 106.733 106.298 108.668 106.298C110.499 106.298 112.049 107.314 112.116 109.458C112.116 109.571 112.292 109.759 112.506 109.759H116.904C117.148 109.759 117.324 109.571 117.29 109.458C117.219 104.345 113.49 100.884 108.668 100.884C104.164 100.884 99.908 104.305 99.908 109.947C99.908 113.444 101.563 116.116 104.483 117.545C106.523 118.557 108.421 118.557 108.668 118.557C110.252 118.633 112.187 119.989 112.187 122.206C112.187 124.199 110.532 125.555 108.668 125.555C108.668 125.555 108.668 125.555 108.635 125.555V130.969C108.668 130.969 108.668 130.969 108.668 130.969C113.172 130.969 117.395 127.848 117.395 122.206C117.395 118.673 115.777 115.74 112.82 114.272Z" fill="#FFD51E"/>
<path d="M144.872 123.711H150.221V101.224C150.221 101.072 150.08 100.884 149.836 100.884H145.19C145.048 100.884 144.872 100.996 144.805 101.108L135.198 123.147L125.099 101.108C125.064 100.996 124.854 100.884 124.747 100.884H120.033C119.786 100.884 119.681 101.072 119.681 101.224V130.629C119.681 130.781 119.786 130.969 120.033 130.969H124.679C124.889 130.969 125.064 130.781 125.064 130.629V113.744L132.701 129.541C132.736 129.653 132.945 129.765 133.053 129.765H137.381C137.485 129.765 137.662 129.653 137.695 129.541L144.872 114.16V123.711Z" fill="#FFD51E"/>
<path d="M169.36 116.001C169.36 114.424 168.199 113.144 166.723 113.144C165.245 113.144 164.084 114.424 164.084 116.001C164.084 117.545 165.245 118.821 166.723 118.821C168.199 118.821 169.36 117.545 169.36 116.001ZM180.268 115.888C180.268 108.406 175.731 100.884 166.758 100.884C157.646 100.884 153.175 108.406 153.175 115.888C153.175 123.411 157.646 130.969 166.758 130.969C175.731 130.969 180.268 123.411 180.268 115.888ZM174.99 116.001C174.99 120.854 172.212 125.703 166.758 125.703C161.232 125.703 158.488 120.854 158.488 116.001C158.488 111.075 161.232 106.186 166.758 106.186C172.212 106.186 174.99 111.075 174.99 116.001Z" fill="#FFD51E"/>
<path d="M22.6668 145.418H19.5809L18.7147 147.674H17.6455L21.1644 138.72H21.2321L24.7511 147.674H23.5059L22.6668 145.418ZM22.3014 144.42L21.1509 141.281L19.9599 144.42H22.3014Z" fill="#5E17EB"/>
<path d="M28.6462 142.553C29.0793 142.553 29.465 142.666 29.8102 142.886C30.1621 143.11 30.4362 143.422 30.6358 143.826C30.8321 144.224 30.9336 144.68 30.9336 145.2C30.9336 145.714 30.8253 146.166 30.6088 146.56C30.399 146.958 30.108 147.262 29.729 147.472C29.35 147.682 28.9237 147.79 28.4567 147.79C28.1218 147.79 27.8003 147.71 27.4958 147.558C27.198 147.407 26.9544 147.197 26.7649 146.937V150.047H25.7363V142.669H26.6296L26.7243 143.493C26.9578 143.215 27.2386 142.988 27.5635 142.814C27.8951 142.64 28.2571 142.553 28.6462 142.553ZM28.2537 146.908C28.5414 146.908 28.8086 146.835 29.0522 146.691C29.3026 146.539 29.5023 146.336 29.6477 146.083C29.8 145.823 29.8779 145.533 29.8779 145.215C29.8779 144.89 29.8102 144.593 29.6748 144.333C29.5395 144.073 29.35 143.87 29.1064 143.725C28.8695 143.573 28.609 143.493 28.3214 143.493C27.9323 143.493 27.5973 143.609 27.3198 143.841C27.039 144.073 26.8529 144.387 26.7649 144.781V145.606C26.8258 145.982 26.995 146.297 27.2657 146.546C27.5432 146.789 27.8748 146.908 28.2537 146.908Z" fill="#5E17EB"/>
<path d="M33.0733 143.914C33.1884 143.646 33.3575 143.407 33.5741 143.205C33.7906 143.002 34.0207 142.85 34.2643 142.741C34.508 142.626 34.7245 142.565 34.914 142.553L34.8734 143.653C34.5384 143.646 34.2373 143.718 33.9666 143.87C33.6959 144.025 33.4828 144.246 33.3305 144.535C33.1748 144.817 33.1004 145.114 33.1004 145.432V147.674H32.0718V142.756H32.9921L33.0733 143.914Z" fill="#5E17EB"/>
<path d="M38.1472 146.835C38.5329 146.835 38.9084 146.698 39.2705 146.416L39.7442 147.24C39.5006 147.414 39.2333 147.551 38.9457 147.646C38.6648 147.74 38.3908 147.79 38.1201 147.79C37.6126 147.79 37.1659 147.678 36.7802 147.457C36.4012 147.226 36.1068 146.915 35.9004 146.517C35.6906 146.123 35.5891 145.674 35.5891 145.172C35.5891 144.691 35.7008 144.253 35.9275 143.856C36.1508 143.45 36.4587 143.132 36.8479 142.9C37.2437 142.669 37.6768 142.553 38.1472 142.553C38.7494 142.553 39.2502 142.741 39.6495 143.117C40.0555 143.493 40.333 144.022 40.4886 144.694L36.8343 146.054C36.9697 146.307 37.149 146.499 37.3757 146.633C37.599 146.77 37.8562 146.835 38.1472 146.835ZM38.066 143.436C37.6396 143.436 37.2945 143.595 37.0238 143.914C36.7531 144.224 36.6178 144.622 36.6178 145.114C36.6178 145.24 36.6178 145.331 36.6178 145.389L39.3111 144.333C39.1927 144.065 39.0302 143.848 38.8239 143.682C38.6242 143.519 38.3705 143.436 38.066 143.436Z" fill="#5E17EB"/>
<path d="M44.375 142.568C44.8081 142.568 45.1633 142.706 45.4442 142.973C45.7216 143.245 45.8671 143.596 45.8773 144.029V147.674H44.8351V144.42C44.8148 144.141 44.7336 143.924 44.5915 143.769C44.4562 143.606 44.243 143.519 43.9553 143.508C43.5493 143.508 43.211 143.689 42.9403 144.044C42.6763 144.391 42.5478 144.836 42.5478 145.374V147.674H41.5192V142.756H42.453L42.5207 143.697C42.6831 143.342 42.9267 143.067 43.2516 142.872C43.5764 142.67 43.9486 142.568 44.375 142.568Z" fill="#5E17EB"/>
<path d="M52.2148 138.46V147.675H51.1591V146.908C50.9425 147.18 50.6718 147.396 50.347 147.559C50.0222 147.711 49.6703 147.79 49.2913 147.79C48.8582 147.79 48.4657 147.678 48.1138 147.458C47.7687 147.237 47.498 146.93 47.3017 146.532C47.1021 146.127 47.004 145.664 47.004 145.143C47.004 144.615 47.1055 144.152 47.3153 143.755C47.5217 143.36 47.8059 143.06 48.1679 142.858C48.5368 142.655 48.9529 142.554 49.4131 142.554C49.7549 142.554 50.0899 142.633 50.4147 142.785C50.7395 142.941 50.9899 143.154 51.1726 143.422V138.46H52.2148ZM49.6026 146.836C50.0087 146.836 50.347 146.727 50.6177 146.503C50.8952 146.272 51.0779 145.964 51.1591 145.577V144.637C51.0779 144.282 50.8884 143.993 50.5906 143.769C50.2997 143.548 49.9714 143.436 49.6026 143.436C49.3218 143.436 49.0612 143.508 48.8176 143.653C48.5807 143.798 48.3912 144 48.2491 144.261C48.1138 144.514 48.0461 144.803 48.0461 145.129C48.0461 145.447 48.1138 145.736 48.2491 145.997C48.3912 146.257 48.5807 146.467 48.8176 146.619C49.0612 146.764 49.3218 146.836 49.6026 146.836Z" fill="#5E17EB"/>
<path d="M55.8975 146.835C56.2832 146.835 56.6587 146.698 57.0208 146.416L57.4945 147.24C57.2509 147.414 56.9836 147.551 56.696 147.646C56.4151 147.74 56.1411 147.79 55.8704 147.79C55.3629 147.79 54.9162 147.678 54.5304 147.457C54.1515 147.226 53.8571 146.915 53.6507 146.517C53.4409 146.123 53.3394 145.674 53.3394 145.172C53.3394 144.691 53.4511 144.253 53.6778 143.856C53.9011 143.45 54.209 143.132 54.5981 142.9C54.994 142.669 55.4271 142.553 55.8975 142.553C56.4998 142.553 57.0005 142.741 57.3998 143.117C57.8058 143.493 58.0833 144.022 58.2389 144.694L54.5846 146.054C54.7199 146.307 54.8993 146.499 55.126 146.633C55.3493 146.77 55.6065 146.835 55.8975 146.835ZM55.8163 143.436C55.3899 143.436 55.0448 143.595 54.7741 143.914C54.5034 144.224 54.368 144.622 54.368 145.114C54.368 145.24 54.368 145.331 54.368 145.389L57.0614 144.333C56.943 144.065 56.7806 143.848 56.5742 143.682C56.3745 143.519 56.1208 143.436 55.8163 143.436Z" fill="#5E17EB"/>
<path d="M60.2711 143.914C60.3862 143.646 60.5554 143.407 60.7719 143.205C60.9884 143.002 61.2185 142.85 61.4621 142.741C61.7058 142.626 61.9223 142.565 62.1118 142.553L62.0712 143.653C61.7363 143.646 61.4351 143.718 61.1644 143.87C60.8937 144.025 60.6806 144.246 60.5283 144.535C60.3726 144.817 60.2982 145.114 60.2982 145.432V147.674H59.2696V142.756H60.1899L60.2711 143.914Z" fill="#5E17EB"/>
<path d="M67.9383 140.586V142.771H69.197V143.639H67.9383V147.674H66.8826V143.639H66.0435V142.771H66.8826V140.586H67.9383Z" fill="#5E17EB"/>
<path d="M74.9186 142.756V147.674H73.8765V146.864C73.7141 147.096 73.4739 147.309 73.1592 147.501C72.8512 147.692 72.5028 147.79 72.117 147.79C71.6738 147.79 71.2779 147.689 70.926 147.486C70.5741 147.284 70.2933 146.991 70.0869 146.604C69.8872 146.221 69.7891 145.758 69.7891 145.215C69.7891 144.676 69.8906 144.21 70.1004 143.812C70.317 143.407 70.6045 143.1 70.9666 142.886C71.3253 142.666 71.7245 142.553 72.1576 142.553C72.5535 142.553 72.8953 142.648 73.1862 142.828C73.4739 143.013 73.704 143.248 73.8765 143.537L73.9577 142.756H74.9186ZM72.3877 146.879C72.7667 146.879 73.0915 146.77 73.3622 146.546C73.6329 146.315 73.8021 146.007 73.8765 145.62V144.636C73.7953 144.29 73.6092 144.011 73.3216 143.798C73.0408 143.577 72.7193 143.465 72.3607 143.465C72.0798 143.465 71.8226 143.537 71.5892 143.682C71.3625 143.826 71.1764 144.029 71.0343 144.29C70.8989 144.542 70.8313 144.832 70.8313 145.157C70.8313 145.475 70.8989 145.765 71.0343 146.025C71.1764 146.285 71.3659 146.495 71.6027 146.647C71.8464 146.803 72.1068 146.879 72.3877 146.879Z" fill="#5E17EB"/>
<path d="M82.3651 142.553C82.8046 142.553 83.1566 142.691 83.4205 142.958C83.6912 143.23 83.8303 143.588 83.8402 144.029V147.674H82.8114V144.434C82.7848 143.856 82.5407 143.548 82.0807 143.508C81.81 143.508 81.5667 143.595 81.35 143.768C81.1402 143.942 80.9775 144.17 80.8626 144.449C80.744 144.72 80.6802 145.013 80.6733 145.331V147.674H79.6309V144.434C79.6043 143.856 79.3503 143.548 78.8728 143.508C78.609 143.508 78.3725 143.595 78.1558 143.768C77.9459 143.942 77.7832 144.17 77.6684 144.449C77.5498 144.731 77.4928 145.027 77.4928 145.345V147.674H76.464V142.756H77.3977L77.4654 143.682C77.6448 143.327 77.8881 143.052 78.1961 142.857C78.501 142.655 78.853 142.553 79.2522 142.553C79.621 142.553 79.932 142.648 80.1859 142.828C80.4361 143.013 80.5988 143.269 80.6733 143.595C80.8626 143.269 81.106 143.013 81.404 142.828C81.7021 142.648 82.0199 142.553 82.3651 142.553Z" fill="#5E17EB"/>
<path d="M88.3149 142.554C88.7278 142.554 89.1072 142.663 89.4516 142.872C89.8037 143.085 90.0782 143.389 90.2774 143.783C90.4736 144.171 90.5754 144.619 90.5754 145.129C90.5754 145.671 90.4667 146.141 90.2508 146.547C90.0409 146.951 89.7527 147.263 89.384 147.472C89.0122 147.682 88.616 147.79 88.1932 147.79C87.8146 147.79 87.4656 147.711 87.1508 147.559C86.8429 147.396 86.5965 147.18 86.4064 146.908V147.675H85.3784V138.46H86.4064V143.407C86.5965 143.147 86.8565 142.941 87.1919 142.785C87.5333 142.633 87.9089 142.554 88.3149 142.554ZM87.9629 146.836C88.413 146.836 88.7818 146.676 89.073 146.358C89.371 146.033 89.5193 145.621 89.5193 145.129C89.5193 144.81 89.4516 144.529 89.3163 144.275C89.181 144.015 88.9916 143.813 88.7483 143.667C88.5111 143.516 88.251 143.436 87.9629 143.436C87.5842 143.436 87.2489 143.548 86.9615 143.769C86.6809 143.982 86.4946 144.268 86.4064 144.623V145.621C86.4946 145.979 86.6809 146.272 86.9615 146.503C87.239 146.727 87.5743 146.836 87.9629 146.836Z" fill="#5E17EB"/>
<path d="M93.8654 146.836C94.2509 146.836 94.6266 146.698 94.9885 146.416L95.4622 147.241C95.2189 147.414 94.952 147.551 94.6638 147.646C94.3833 147.74 94.1088 147.79 93.8381 147.79C93.3309 147.79 92.8846 147.678 92.4983 147.457C92.1197 147.226 91.8254 146.915 91.6186 146.517C91.4087 146.123 91.3076 145.675 91.3076 145.172C91.3076 144.691 91.4194 144.254 91.646 143.856C91.8695 143.45 92.1767 143.132 92.566 142.901C92.9621 142.669 93.3948 142.554 93.8654 142.554C94.4677 142.554 94.9687 142.742 95.3679 143.118C95.7739 143.494 96.0515 144.022 96.2066 144.695L92.5523 146.055C92.6877 146.307 92.8671 146.499 93.0937 146.633C93.3172 146.771 93.5742 146.836 93.8654 146.836ZM93.7841 143.436C93.3583 143.436 93.0131 143.596 92.7424 143.914C92.4717 144.224 92.3364 144.622 92.3364 145.114C92.3364 145.241 92.3364 145.331 92.3364 145.389L95.0296 144.333C94.9109 144.065 94.749 143.848 94.5422 143.682C94.3422 143.519 94.089 143.436 93.7841 143.436ZM94.5695 141.903H93.9057L94.8265 140.297H95.9906L94.5695 141.903Z" fill="#5E17EB"/>
<path d="M103.139 142.553C103.578 142.553 103.93 142.691 104.194 142.958C104.465 143.23 104.604 143.588 104.614 144.029V147.674H103.585V144.434C103.558 143.856 103.314 143.548 102.854 143.508C102.584 143.508 102.34 143.595 102.124 143.768C101.914 143.942 101.751 144.17 101.636 144.449C101.518 144.72 101.454 145.013 101.447 145.331V147.674H100.405V144.434C100.378 143.856 100.124 143.548 99.6465 143.508C99.3826 143.508 99.1462 143.595 98.9295 143.768C98.7196 143.942 98.5569 144.17 98.4421 144.449C98.3235 144.731 98.2664 145.027 98.2664 145.345V147.674H97.2377V142.756H98.1714L98.2391 143.682C98.4185 143.327 98.6618 143.052 98.9698 142.857C99.2747 142.655 99.6267 142.553 100.026 142.553C100.395 142.553 100.706 142.648 100.96 142.828C101.21 143.013 101.372 143.269 101.447 143.595C101.636 143.269 101.88 143.013 102.178 142.828C102.476 142.648 102.794 142.553 103.139 142.553Z" fill="#5E17EB"/>
<path d="M111.56 146.836C111.946 146.836 112.322 146.698 112.684 146.416L113.157 147.241C112.914 147.414 112.646 147.551 112.359 147.646C112.078 147.74 111.804 147.79 111.533 147.79C111.026 147.79 110.579 147.678 110.193 147.457C109.815 147.226 109.52 146.915 109.314 146.517C109.104 146.123 109.002 145.675 109.002 145.172C109.002 144.691 109.114 144.254 109.34 143.856C109.564 143.45 109.872 143.132 110.261 142.901C110.657 142.669 111.09 142.554 111.56 142.554C112.163 142.554 112.663 142.742 113.063 143.118C113.469 143.494 113.746 144.022 113.902 144.695L110.247 146.055C110.383 146.307 110.562 146.499 110.789 146.633C111.012 146.771 111.269 146.836 111.56 146.836ZM111.479 143.436C111.053 143.436 110.707 143.596 110.437 143.914C110.166 144.224 110.031 144.622 110.031 145.114C110.031 145.241 110.031 145.331 110.031 145.389L112.725 144.333C112.606 144.065 112.443 143.848 112.237 143.682C112.037 143.519 111.783 143.436 111.479 143.436ZM112.264 141.903H111.601L112.522 140.297H113.685L112.264 141.903Z" fill="#5E17EB"/>
<path d="M122.994 138.46V147.675H121.938V146.908C121.721 147.18 121.45 147.396 121.126 147.559C120.801 147.711 120.449 147.79 120.07 147.79C119.637 147.79 119.245 147.678 118.892 147.458C118.547 147.237 118.277 146.93 118.08 146.532C117.881 146.127 117.782 145.664 117.782 145.143C117.782 144.615 117.884 144.152 118.094 143.755C118.3 143.36 118.585 143.06 118.946 142.858C119.315 142.655 119.732 142.554 120.192 142.554C120.533 142.554 120.869 142.633 121.193 142.785C121.518 142.941 121.769 143.154 121.951 143.422V138.46H122.994ZM120.381 146.836C120.787 146.836 121.126 146.727 121.396 146.503C121.674 146.272 121.856 145.964 121.938 145.577V144.637C121.856 144.282 121.667 143.993 121.37 143.769C121.078 143.548 120.75 143.436 120.381 143.436C120.101 143.436 119.84 143.508 119.597 143.653C119.359 143.798 119.17 144 119.028 144.261C118.892 144.514 118.825 144.803 118.825 145.129C118.825 145.447 118.892 145.736 119.028 145.997C119.17 146.257 119.359 146.467 119.597 146.619C119.84 146.764 120.101 146.836 120.381 146.836Z" fill="#5E17EB"/>
<path d="M125.553 142.756V147.674H124.524V142.756H125.553ZM124.199 140.89C124.199 140.716 124.261 140.572 124.389 140.456C124.514 140.333 124.66 140.268 124.822 140.268C124.984 140.268 125.123 140.333 125.241 140.456C125.367 140.572 125.431 140.716 125.431 140.89C125.431 141.064 125.367 141.208 125.241 141.324C125.123 141.44 124.984 141.498 124.822 141.498C124.66 141.498 124.514 141.44 124.389 141.324C124.261 141.208 124.199 141.064 124.199 140.89Z" fill="#5E17EB"/>
<path d="M131.474 142.756L129.025 147.819H128.97L126.412 142.756H127.644L129.038 145.895L130.324 142.756H131.474Z" fill="#5E17EB"/>
<path d="M134.49 146.835C134.875 146.835 135.251 146.698 135.614 146.416L136.087 147.24C135.843 147.414 135.576 147.551 135.288 147.646C135.008 147.74 134.734 147.79 134.463 147.79C133.955 147.79 133.509 147.678 133.123 147.457C132.744 147.226 132.45 146.915 132.243 146.517C132.033 146.123 131.932 145.674 131.932 145.172C131.932 144.691 132.044 144.253 132.27 143.856C132.494 143.45 132.802 143.132 133.19 142.9C133.586 142.669 134.02 142.553 134.49 142.553C135.092 142.553 135.593 142.741 135.992 143.117C136.398 143.493 136.676 144.022 136.832 144.694L133.177 146.054C133.313 146.307 133.491 146.499 133.719 146.633C133.942 146.77 134.199 146.835 134.49 146.835ZM134.408 143.436C133.983 143.436 133.637 143.595 133.367 143.914C133.096 144.224 132.961 144.622 132.961 145.114C132.961 145.24 132.961 145.331 132.961 145.389L135.654 144.333C135.535 144.065 135.373 143.848 135.166 143.682C134.967 143.519 134.713 143.436 134.408 143.436Z" fill="#5E17EB"/>
<path d="M138.863 143.914C138.978 143.646 139.148 143.407 139.364 143.205C139.581 143.002 139.811 142.85 140.055 142.741C140.298 142.626 140.515 142.565 140.704 142.553L140.664 143.653C140.328 143.646 140.027 143.718 139.757 143.87C139.486 144.025 139.273 144.246 139.12 144.535C138.965 144.817 138.891 145.114 138.891 145.432V147.674H137.862V142.756H138.782L138.863 143.914Z" fill="#5E17EB"/>
<path d="M143.274 140.586V142.771H144.532V143.639H143.274V147.674H142.219V143.639H141.379V142.771H142.219V140.586H143.274Z" fill="#5E17EB"/>
<path d="M146.56 142.756V147.674H145.531V142.756H146.56ZM145.206 140.89C145.206 140.716 145.267 140.572 145.396 140.456C145.521 140.333 145.666 140.268 145.829 140.268C145.991 140.268 146.13 140.333 146.249 140.456C146.373 140.572 146.438 140.716 146.438 140.89C146.438 141.064 146.373 141.208 146.249 141.324C146.13 141.44 145.991 141.498 145.829 141.498C145.666 141.498 145.521 141.44 145.396 141.324C145.267 141.208 145.206 141.064 145.206 140.89Z" fill="#5E17EB"/>
<path d="M152.914 138.46V147.675H151.858V146.908C151.642 147.18 151.371 147.396 151.046 147.559C150.722 147.711 150.37 147.79 149.991 147.79C149.558 147.79 149.165 147.678 148.813 147.458C148.468 147.237 148.197 146.93 148.001 146.532C147.801 146.127 147.703 145.664 147.703 145.143C147.703 144.615 147.805 144.152 148.015 143.755C148.221 143.36 148.505 143.06 148.867 142.858C149.236 142.655 149.653 142.554 150.113 142.554C150.454 142.554 150.789 142.633 151.114 142.785C151.439 142.941 151.689 143.154 151.872 143.422V138.46H152.914ZM150.302 146.836C150.708 146.836 151.046 146.727 151.317 146.503C151.595 146.272 151.777 145.964 151.858 145.577V144.637C151.777 144.282 151.588 143.993 151.29 143.769C150.999 143.548 150.671 143.436 150.302 143.436C150.021 143.436 149.761 143.508 149.517 143.653C149.28 143.798 149.091 144 148.949 144.261C148.813 144.514 148.746 144.803 148.746 145.129C148.746 145.447 148.813 145.736 148.949 145.997C149.091 146.257 149.28 146.467 149.517 146.619C149.761 146.764 150.021 146.836 150.302 146.836Z" fill="#5E17EB"/>
<path d="M154.039 145.172C154.039 144.68 154.147 144.239 154.364 143.841C154.581 143.436 154.882 143.125 155.27 142.9C155.666 142.669 156.11 142.553 156.597 142.553C157.084 142.553 157.517 142.669 157.897 142.9C158.282 143.125 158.58 143.436 158.789 143.841C159.006 144.239 159.115 144.68 159.115 145.172C159.115 145.664 159.006 146.112 158.789 146.517C158.58 146.915 158.282 147.226 157.897 147.457C157.507 147.678 157.064 147.79 156.57 147.79C156.089 147.79 155.657 147.682 155.27 147.472C154.882 147.251 154.581 146.943 154.364 146.546C154.147 146.151 154.039 145.692 154.039 145.172ZM155.081 145.172C155.081 145.483 155.142 145.772 155.27 146.04C155.406 146.3 155.585 146.51 155.812 146.662C156.035 146.806 156.289 146.879 156.57 146.879C156.992 146.879 157.345 146.719 157.626 146.401C157.913 146.076 158.058 145.664 158.058 145.172C158.058 144.691 157.913 144.285 157.626 143.957C157.345 143.631 156.992 143.465 156.57 143.465C156.279 143.465 156.021 143.544 155.799 143.697C155.582 143.851 155.406 144.058 155.27 144.318C155.142 144.579 155.081 144.865 155.081 145.172Z" fill="#5E17EB"/>
<path d="M70.0165 82.6132C70.0165 83.055 69.6849 83.4129 69.2755 83.4129H61.1142C60.7048 83.4129 60.3732 83.055 60.3732 82.6132V79.42C60.3732 78.979 60.7048 78.621 61.1142 78.621H62.2274C62.8398 78.621 63.3406 78.0857 63.3406 77.4242C63.3406 76.762 62.8398 76.2267 62.2274 76.2267H61.1142C60.7048 76.2267 60.3732 75.8687 60.3732 75.4277V72.2345C60.3732 71.7934 60.7048 71.4355 61.1142 71.4355H63.3406V70.6357C63.3406 69.3123 64.3388 68.2383 65.5704 68.2383C65.7193 68.2383 65.8648 68.2564 66.0103 68.2889C67.066 68.5457 67.8104 69.5655 67.7901 70.7299V71.4355H70.0165V82.6132ZM79.2909 72.2345H80.4041C80.8139 72.2345 81.1455 71.8765 81.1455 71.4355V68.2418C81.1455 67.8007 80.8139 67.4426 80.4041 67.4426H72.2429C71.8335 67.4426 71.4985 67.8007 71.4985 68.2418V79.42H73.725V80.1255C73.708 81.2902 74.4491 82.3097 75.5048 82.5665C76.7126 82.8303 77.8904 81.9915 78.1337 80.6893C78.1611 80.5344 78.1778 80.3788 78.1778 80.2197V79.42H80.4041C80.8139 79.42 81.1455 79.062 81.1455 78.621V75.4277C81.1455 74.9867 80.8139 74.6287 80.4041 74.6287H79.2909C78.6751 74.6287 78.1778 74.0935 78.1778 73.4312C78.1778 72.7697 78.6751 72.2345 79.2909 72.2345Z" fill="#FFD51E"/>
<path d="M105.734 19.467C105.734 19.9082 105.399 20.2663 104.989 20.2663H96.8316C96.4187 20.2663 96.0872 19.9082 96.0872 19.467V16.2738C96.0872 15.8325 96.4187 15.4745 96.8316 15.4745H97.9417C98.5576 15.4745 99.0549 14.9393 99.0549 14.2775C99.0549 13.6157 98.5576 13.0768 97.9417 13.0768H96.8316C96.4187 13.0768 96.0872 12.7224 96.0872 12.2812V9.08426C96.0872 8.64672 96.4187 8.28867 96.8316 8.28867H99.0549V7.48945C99.0579 6.16221 100.056 5.09176 101.288 5.09176C101.433 5.09176 101.582 5.10984 101.728 5.13877C102.784 5.39553 103.528 6.41899 103.508 7.58344V8.28867H105.734V19.467ZM115.005 9.08426H116.119C116.528 9.08426 116.859 8.7299 116.859 8.28867V5.09176C116.859 4.65417 116.528 4.29614 116.119 4.29614H107.957C107.548 4.29614 107.216 4.65417 107.216 5.09176V16.2738H109.443V16.9753C109.422 18.1434 110.167 19.1632 111.222 19.42C112.43 19.684 113.604 18.8414 113.848 17.5431C113.879 17.3876 113.892 17.2285 113.892 17.0693V16.2738H116.119C116.528 16.2738 116.859 15.9157 116.859 15.4745V12.2812C116.859 11.84 116.528 11.482 116.119 11.482H115.005C114.393 11.482 113.892 10.9468 113.892 10.2849C113.892 9.62312 114.393 9.08426 115.005 9.08426Z" fill="#FFD51E"/>
</svg>
